Coordinates
version=1
nRows=10
nColumns=40
inDegrees=yes

Units are S.I. units (second, meters, Newtons, ...)
If the header above contains a line with 'inDegrees', this indicates whether rotational values are in degrees (yes) or radians (no).

endheader
time	pelvis_tilt	pelvis_list	pelvis_rotation	pelvis_tx	pelvis_ty	pelvis_tz	hip_flexion_r	hip_adduction_r	hip_rotation_r	knee_angle_r	knee_angle_r_beta	ankle_angle_r	subtalar_angle_r	mtp_angle_r	hip_flexion_l	hip_adduction_l	hip_rotation_l	knee_angle_l	knee_angle_l_beta	ankle_angle_l	subtalar_angle_l	mtp_angle_l	lumbar_extension	lumbar_bending	lumbar_rotation	arm_flex_r	arm_add_r	arm_rot_r	elbow_flex_r	pro_sup_r	wrist_flex_r	wrist_dev_r	arm_flex_l	arm_add_l	arm_rot_l	elbow_flex_l	pro_sup_l	wrist_flex_l	wrist_dev_l
      3.00000000	     -0.16519236	     -6.56680026	      0.44617122	     -0.34813676	      0.96253752	     -1.06050555	     45.59132693	     -4.31871261	    -11.66103400	     26.26766500	      0.45845724	    -12.10871971	      0.00000000	      0.00000000	     32.39551889	     -5.95460761	     -8.07651480	     55.43650167	      0.96754948	     10.82764709	      0.00000000	      0.00000000	    -18.60019050	      2.79127276	      5.09385977	     86.22615773	    -29.49520230	     31.87900524	     45.50115082	     82.23642441	      0.00000000	      0.00000000	     88.54498050	    -30.64030564	     47.64325792	     37.86564770	     82.83297284	      0.00000000	      0.00000000
      3.00500000	     -0.15681004	     -6.58158969	      0.47186712	     -0.34856288	      0.96159097	     -1.06054349	     45.67293178	     -4.38807903	    -11.64329740	     26.31712143	      0.45932042	    -12.06874194	      0.00000000	      0.00000000	     32.54848918	     -5.93729996	     -7.98031979	     55.67552693	      0.97172126	     10.91527920	      0.00000000	      0.00000000	    -18.68428526	      2.78944705	      5.06869369	     86.38106024	    -29.43994882	     31.92799357	     45.36451716	     82.30177950	      0.00000000	      0.00000000	     88.61947429	    -30.59294577	     47.58545384	     37.85410328	     82.75094207	      0.00000000	      0.00000000
      3.01000000	     -0.15980354	     -6.60018847	      0.42079199	     -0.34877825	      0.96065644	     -1.06047494	     45.77065435	     -4.40164478	    -11.62543563	     26.38072278	      0.46043047	    -11.95859204	      0.00000000	      0.00000000	     32.68232936	     -5.98743180	     -8.00162489	     55.91521176	      0.97590455	     11.00002413	      0.00000000	      0.00000000	    -18.73785224	      2.76655367	      5.11075577	     86.47400013	    -29.38764688	     31.85608176	     45.32858685	     82.15017788	      0.00000000	      0.00000000	     88.68857855	    -30.56231031	     47.61275361	     37.86278602	     82.72433521	      0.00000000	      0.00000000
      3.01500000	     -0.18510617	     -6.65903188	      0.42788672	     -0.34895977	      0.95962532	     -1.06049528	     45.88636532	     -4.43001485	    -11.69257709	     26.47085993	      0.46200366	    -11.86194795	      0.00000000	      0.00000000	     32.86093107	     -6.02232181	     -7.89621362	     56.17553720	      0.98044808	     11.11497428	      0.00000000	      0.00000000	    -18.76202298	      2.80326535	      5.14270463	     86.57435676	    -29.41606386	     31.89145010	     45.30849626	     82.23042354	      0.00000000	      0.00000000	     88.71672045	    -30.50628274	     47.56513235	     37.89178692	     82.89325377	      0.00000000	      0.00000000
      3.02000000	     -0.21142281	     -6.67856336	      0.40665195	     -0.34924033	      0.95865083	     -1.06041592	     46.00024288	     -4.46249367	    -11.73040538	     26.50625759	      0.46262147	    -11.85621603	      0.00000000	      0.00000000	     33.03053666	     -6.04261361	     -7.85206446	     56.42688021	      0.98483485	     11.21320051	      0.00000000	      0.00000000	    -18.79704434	      2.79882481	      5.12755704	     86.67885807	    -29.33124983	     31.91031278	     45.23732660	     82.17529022	      0.00000000	      0.00000000	     88.74926546	    -30.54394429	     47.49859012	     37.97752761	     82.72996914	      0.00000000	      0.00000000
      3.02500000	     -0.16471854	     -6.78723418	      0.42063829	     -0.34964358	      0.95777472	     -1.06034803	     45.99718150	     -4.42260444	    -11.84327217	     26.46358475	      0.46187669	    -11.89087752	      0.00000000	      0.00000000	     33.16018149	     -6.14066499	     -7.73664214	     56.70659516	      0.98971679	     11.32216926	      0.00000000	      0.00000000	    -18.90203122	      2.89009067	      5.12420334	     86.84409912	    -29.21628540	     32.36398596	     45.11651041	     78.35337623	      0.00000000	      0.00000000	     88.85112530	    -30.48173145	     48.03428884	     37.92703810	     79.08142147	      0.00000000	      0.00000000
      3.03000000	     -0.21240674	     -6.73502045	      0.39032552	     -0.34999608	      0.95676094	     -1.06031733	     46.18615644	     -4.50798262	    -11.78002624	     26.58170532	      0.46393828	    -11.79181053	      0.00000000	      0.00000000	     33.33546199	     -6.06459452	     -7.69120049	     56.90220852	      0.99313089	     11.41517560	      0.00000000	      0.00000000	    -18.94252372	      2.80906293	      5.13133017	     86.91443836	    -29.20319447	     31.84751327	     45.11493800	     82.30773427	      0.00000000	      0.00000000	     88.89000767	    -30.49619016	     47.47451327	     37.97934105	     82.79758063	      0.00000000	      0.00000000
      3.03500000	     -0.26594482	     -6.78448901	      0.35280178	     -0.35040382	      0.95569496	     -1.06018143	     46.35226082	     -4.48876400	    -11.75681378	     26.64122776	      0.46497714	    -11.78081359	      0.00000000	      0.00000000	     33.54593268	     -6.11704010	     -7.63584971	     57.14871066	      0.99743316	     11.52096406	      0.00000000	      0.00000000	    -18.96139729	      2.82459784	      5.19320714	     87.01162484	    -29.17726935	     31.75867489	     45.09095805	     82.35696661	      0.00000000	      0.00000000	     88.95003214	    -30.45939553	     47.41955139	     38.04508726	     82.87590345	      0.00000000	      0.00000000
      3.04000000	     -0.32664752	     -6.91518604	      0.29904108	     -0.35042070	      0.95461160	     -1.06008920	     46.48656588	     -4.39822648	    -11.82329424	     26.67590642	      0.46558240	    -11.60580977	      0.00000000	      0.00000000	     33.77960013	     -6.28481261	     -7.60343980	     57.50475762	      1.00364736	     11.55591400	      0.00000000	      0.00000000	    -18.88861648	      2.91429773	      5.33617449	     87.15476410	    -29.32991279	     32.96224598	     45.06248691	     75.91126989	      0.00000000	      0.00000000	     89.04847266	    -30.24946807	     48.52781079	     37.89024818	     76.47633951	      0.00000000	      0.00000000
      3.04500000	     -0.33522790	     -6.84343065	      0.29476257	     -0.35074174	      0.95374511	     -1.06010343	     46.59395454	     -4.50517070	    -11.83157470	     26.71897321	      0.46633406	    -11.64798630	      0.00000000	      0.00000000	     33.89538593	     -6.14235718	     -7.47242076	     57.63740608	      1.00596251	     11.68672596	      0.00000000	      0.00000000	    -18.97258912	      2.82742153	      5.28544060	     87.10138433	    -29.16924719	     31.67872540	     45.09023648	     82.25001713	      0.00000000	      0.00000000	     88.99795525	    -30.34674764	     47.36491576	     38.07108122	     82.94402738	      0.00000000	      0.00000000
